<mxfile host="app.diagrams.net" modified="2023-10-30T10:48:03.712Z" agent="Mozilla/5.0 (X11; Linux x86_64) AppleWebKit/537.36 (KHTML, like Gecko) Chrome/109.0.0.0 Safari/537.36" version="22.0.8" etag="JwmlTBe6UJP3qDD1UATS" type="github">
  <diagram name="페이지-1" id="8w04S1fC7oXCp2rjPd3L">
    <mxGraphModel>
      <root>
        <mxCell id="0" />
        <mxCell id="1" parent="0" />
      </root>
    </mxGraphModel>
  </diagram>
</mxfile>
